<mxfile host="app.diagrams.net" modified="2020-03-31T18:57:56.161Z" agent="Mozilla/5.0 (Macintosh; Intel Mac OS X 10_15_3) AppleWebKit/537.36 (KHTML, like Gecko) Chrome/80.0.3987.149 Safari/537.36" etag="KBA0U04EqQH1AP0189To" version="12.8.8" type="github">
  <diagram id="cHa8GJooFYNcdk7CPM-V" name="Page-1">
    <mxGraphModel dx="1694" dy="1091" grid="1" gridSize="10" guides="1" tooltips="1" connect="1" arrows="1" fold="1" page="1" pageScale="1" pageWidth="827" pageHeight="1169" math="0" shadow="0">
      <root>
        <mxCell id="0" />
        <mxCell id="1" parent="0" />
        <mxCell id="a9IdQ7Ph0LjBeHesEZ1b-1" value="&lt;font style=&quot;font-size: 22px&quot;&gt;Мы используем анализ и визуализацию данных на каждом этапе процесса машинного обучения&lt;/font&gt;" style="text;html=1;strokeColor=none;fillColor=none;align=center;verticalAlign=middle;whiteSpace=wrap;rounded=0;" vertex="1" parent="1">
          <mxGeometry x="60" y="20" width="1060" height="80" as="geometry" />
        </mxCell>
        <mxCell id="a9IdQ7Ph0LjBeHesEZ1b-2" value="Исследование данных" style="swimlane;fontStyle=0;childLayout=stackLayout;horizontal=1;startSize=29;fillColor=#2F5B7C;horizontalStack=0;resizeParent=1;resizeParentMax=0;resizeLast=0;collapsible=1;marginBottom=0;swimlaneFillColor=#ffffff;align=center;fontSize=14;rounded=0;shadow=0;strokeWidth=2;fontColor=#FFFFFF;spacing=2;spacingTop=0;strokeColor=#2F5B7C;swimlaneLine=1;html=1;overflow=visible;verticalAlign=middle;" vertex="1" parent="1">
          <mxGeometry x="60" y="100" width="180" height="122" as="geometry">
            <mxRectangle x="1300" y="10" width="70" height="30" as="alternateBounds" />
          </mxGeometry>
        </mxCell>
        <mxCell id="a9IdQ7Ph0LjBeHesEZ1b-3" value="Визуализация набора данных" style="text;spacingLeft=4;spacingRight=4;overflow=hidden;rotatable=0;points=[[0,0.5],[1,0.5]];portConstraint=eastwest;fontSize=12;perimeterSpacing=0;verticalAlign=middle;" vertex="1" parent="a9IdQ7Ph0LjBeHesEZ1b-2">
          <mxGeometry y="29" width="180" height="31" as="geometry" />
        </mxCell>
        <mxCell id="a9IdQ7Ph0LjBeHesEZ1b-5" value="Поиск пустых полей" style="text;spacingLeft=4;spacingRight=4;overflow=hidden;rotatable=0;points=[[0,0.5],[1,0.5]];portConstraint=eastwest;fontSize=12;perimeterSpacing=0;verticalAlign=middle;" vertex="1" parent="a9IdQ7Ph0LjBeHesEZ1b-2">
          <mxGeometry y="60" width="180" height="31" as="geometry" />
        </mxCell>
        <mxCell id="a9IdQ7Ph0LjBeHesEZ1b-6" value="Корреляционный анализ" style="text;spacingLeft=4;spacingRight=4;overflow=hidden;rotatable=0;points=[[0,0.5],[1,0.5]];portConstraint=eastwest;fontSize=12;perimeterSpacing=0;verticalAlign=middle;" vertex="1" parent="a9IdQ7Ph0LjBeHesEZ1b-2">
          <mxGeometry y="91" width="180" height="31" as="geometry" />
        </mxCell>
        <mxCell id="a9IdQ7Ph0LjBeHesEZ1b-7" value="" style="edgeStyle=orthogonalEdgeStyle;rounded=0;orthogonalLoop=1;jettySize=auto;html=1;startSize=30;strokeColor=#2F5B7C;strokeWidth=3;fontSize=30;fontColor=#000000;endArrow=block;endFill=1;exitX=1;exitY=0.5;exitDx=0;exitDy=0;entryX=0;entryY=0.5;entryDx=0;entryDy=0;" edge="1" parent="1" source="a9IdQ7Ph0LjBeHesEZ1b-5" target="a9IdQ7Ph0LjBeHesEZ1b-9">
          <mxGeometry relative="1" as="geometry">
            <mxPoint x="1240" y="80" as="sourcePoint" />
            <mxPoint x="290" y="176" as="targetPoint" />
            <Array as="points" />
          </mxGeometry>
        </mxCell>
        <mxCell id="a9IdQ7Ph0LjBeHesEZ1b-8" value="Очистка данных" style="swimlane;fontStyle=0;childLayout=stackLayout;horizontal=1;startSize=29;fillColor=#2F5B7C;horizontalStack=0;resizeParent=1;resizeParentMax=0;resizeLast=0;collapsible=1;marginBottom=0;swimlaneFillColor=#ffffff;align=center;fontSize=14;rounded=0;shadow=0;strokeWidth=2;fontColor=#FFFFFF;spacing=2;spacingTop=0;strokeColor=#2F5B7C;swimlaneLine=1;html=1;overflow=visible;verticalAlign=middle;" vertex="1" parent="1">
          <mxGeometry x="290" y="100" width="335" height="122" as="geometry">
            <mxRectangle x="1300" y="10" width="70" height="30" as="alternateBounds" />
          </mxGeometry>
        </mxCell>
        <mxCell id="a9IdQ7Ph0LjBeHesEZ1b-9" value="Проверка: исравлены ли все потенциальные проблемы?" style="text;spacingLeft=4;spacingRight=4;overflow=hidden;rotatable=0;points=[[0,0.5],[1,0.5]];portConstraint=eastwest;fontSize=12;perimeterSpacing=0;verticalAlign=middle;" vertex="1" parent="a9IdQ7Ph0LjBeHesEZ1b-8">
          <mxGeometry y="29" width="335" height="93" as="geometry" />
        </mxCell>
        <mxCell id="a9IdQ7Ph0LjBeHesEZ1b-12" value="Построение модели" style="swimlane;fontStyle=0;childLayout=stackLayout;horizontal=1;startSize=29;fillColor=#2F5B7C;horizontalStack=0;resizeParent=1;resizeParentMax=0;resizeLast=0;collapsible=1;marginBottom=0;swimlaneFillColor=#ffffff;align=center;fontSize=14;rounded=0;shadow=0;strokeWidth=2;fontColor=#FFFFFF;spacing=2;spacingTop=0;strokeColor=#2F5B7C;swimlaneLine=1;html=1;overflow=visible;verticalAlign=middle;" vertex="1" parent="1">
          <mxGeometry x="675" y="100" width="180" height="122" as="geometry">
            <mxRectangle x="1300" y="10" width="70" height="30" as="alternateBounds" />
          </mxGeometry>
        </mxCell>
        <mxCell id="a9IdQ7Ph0LjBeHesEZ1b-13" value="Визуализация результатов" style="text;spacingLeft=4;spacingRight=4;overflow=hidden;rotatable=0;points=[[0,0.5],[1,0.5]];portConstraint=eastwest;fontSize=12;perimeterSpacing=0;verticalAlign=middle;" vertex="1" parent="a9IdQ7Ph0LjBeHesEZ1b-12">
          <mxGeometry y="29" width="180" height="31" as="geometry" />
        </mxCell>
        <mxCell id="a9IdQ7Ph0LjBeHesEZ1b-14" value="Диагностика модели" style="text;spacingLeft=4;spacingRight=4;overflow=hidden;rotatable=0;points=[[0,0.5],[1,0.5]];portConstraint=eastwest;fontSize=12;perimeterSpacing=0;verticalAlign=middle;" vertex="1" parent="a9IdQ7Ph0LjBeHesEZ1b-12">
          <mxGeometry y="60" width="180" height="31" as="geometry" />
        </mxCell>
        <mxCell id="a9IdQ7Ph0LjBeHesEZ1b-15" value="Остаточная диагностика" style="text;spacingLeft=4;spacingRight=4;overflow=hidden;rotatable=0;points=[[0,0.5],[1,0.5]];portConstraint=eastwest;fontSize=12;perimeterSpacing=0;verticalAlign=middle;" vertex="1" parent="a9IdQ7Ph0LjBeHesEZ1b-12">
          <mxGeometry y="91" width="180" height="31" as="geometry" />
        </mxCell>
        <mxCell id="a9IdQ7Ph0LjBeHesEZ1b-16" value="" style="edgeStyle=orthogonalEdgeStyle;rounded=0;orthogonalLoop=1;jettySize=auto;html=1;startSize=30;strokeColor=#2F5B7C;strokeWidth=3;fontSize=30;fontColor=#000000;endArrow=block;endFill=1;exitX=1;exitY=0.5;exitDx=0;exitDy=0;entryX=0;entryY=0.5;entryDx=0;entryDy=0;" edge="1" parent="1" source="a9IdQ7Ph0LjBeHesEZ1b-9" target="a9IdQ7Ph0LjBeHesEZ1b-14">
          <mxGeometry relative="1" as="geometry">
            <mxPoint x="625" y="175.26000000000002" as="sourcePoint" />
            <mxPoint x="675" y="175.2599999999999" as="targetPoint" />
            <Array as="points" />
          </mxGeometry>
        </mxCell>
        <mxCell id="a9IdQ7Ph0LjBeHesEZ1b-17" value="Презентация результатов" style="swimlane;fontStyle=0;childLayout=stackLayout;horizontal=1;startSize=29;fillColor=#2F5B7C;horizontalStack=0;resizeParent=1;resizeParentMax=0;resizeLast=0;collapsible=1;marginBottom=0;swimlaneFillColor=#ffffff;align=center;fontSize=14;rounded=0;shadow=0;strokeWidth=2;fontColor=#FFFFFF;spacing=2;spacingTop=0;strokeColor=#2F5B7C;swimlaneLine=1;html=1;overflow=visible;verticalAlign=middle;" vertex="1" parent="1">
          <mxGeometry x="905" y="100" width="215" height="122" as="geometry">
            <mxRectangle x="1300" y="10" width="70" height="30" as="alternateBounds" />
          </mxGeometry>
        </mxCell>
        <mxCell id="a9IdQ7Ph0LjBeHesEZ1b-18" value="Графики" style="text;spacingLeft=4;spacingRight=4;overflow=hidden;rotatable=0;points=[[0,0.5],[1,0.5]];portConstraint=eastwest;fontSize=12;perimeterSpacing=0;verticalAlign=middle;" vertex="1" parent="a9IdQ7Ph0LjBeHesEZ1b-17">
          <mxGeometry y="29" width="215" height="31" as="geometry" />
        </mxCell>
        <mxCell id="a9IdQ7Ph0LjBeHesEZ1b-19" value="Диаграммы" style="text;spacingLeft=4;spacingRight=4;overflow=hidden;rotatable=0;points=[[0,0.5],[1,0.5]];portConstraint=eastwest;fontSize=12;perimeterSpacing=0;verticalAlign=middle;" vertex="1" parent="a9IdQ7Ph0LjBeHesEZ1b-17">
          <mxGeometry y="60" width="215" height="31" as="geometry" />
        </mxCell>
        <mxCell id="a9IdQ7Ph0LjBeHesEZ1b-20" value="Таблицы" style="text;spacingLeft=4;spacingRight=4;overflow=hidden;rotatable=0;points=[[0,0.5],[1,0.5]];portConstraint=eastwest;fontSize=12;perimeterSpacing=0;verticalAlign=middle;" vertex="1" parent="a9IdQ7Ph0LjBeHesEZ1b-17">
          <mxGeometry y="91" width="215" height="31" as="geometry" />
        </mxCell>
        <mxCell id="a9IdQ7Ph0LjBeHesEZ1b-21" value="" style="edgeStyle=orthogonalEdgeStyle;rounded=0;orthogonalLoop=1;jettySize=auto;html=1;startSize=30;strokeColor=#2F5B7C;strokeWidth=3;fontSize=30;fontColor=#000000;endArrow=block;endFill=1;exitX=1;exitY=0.5;exitDx=0;exitDy=0;entryX=0;entryY=0.5;entryDx=0;entryDy=0;" edge="1" parent="1" source="a9IdQ7Ph0LjBeHesEZ1b-14" target="a9IdQ7Ph0LjBeHesEZ1b-19">
          <mxGeometry relative="1" as="geometry">
            <mxPoint x="855" y="180" as="sourcePoint" />
            <mxPoint x="905" y="180" as="targetPoint" />
            <Array as="points" />
          </mxGeometry>
        </mxCell>
      </root>
    </mxGraphModel>
  </diagram>
</mxfile>
